<?xml version="1.0" encoding="UTF-8" standalone="no"?>
<!DOCTYPE svg PUBLIC "-//W3C//DTD SVG 1.1//EN"
 "http://www.w3.org/Graphics/SVG/1.1/DTD/svg11.dtd">
<!-- Generated by graphviz version 15.1.1 (20260805.0921)
 -->
<!-- Title: clues Pages: 1 -->
<svg width="1059pt" height="857pt"
 viewBox="0.00 0.00 1059.00 857.00" xmlns="http://www.w3.org/2000/svg" xmlns:xlink="http://www.w3.org/1999/xlink">
<g id="graph0" class="graph" transform="scale(1 1) rotate(0) translate(10.8 846.55)">
<title>clues</title>
<polygon fill="#ffffff" stroke="none" points="-10.8,10.8 -10.8,-846.55 1047.8,-846.55 1047.8,10.8 -10.8,10.8"/>
<text xml:space="preserve" text-anchor="middle" x="518.5" y="-816.55" font-family="Microsoft JhengHei, Noto Sans CJK TC, PingFang TC, sans-serif" font-size="16.00">改革派對付保守派策略｜由目標逆推</text>
<g id="clust1" class="cluster">
<title>cluster_00</title>
<path fill="#fafafa" stroke="#cbd5e1" d="M895,-249C895,-249 1017,-249 1017,-249 1023,-249 1029,-255 1029,-261 1029,-261 1029,-549 1029,-549 1029,-555 1023,-561 1017,-561 1017,-561 895,-561 895,-561 889,-561 883,-555 883,-549 883,-549 883,-261 883,-261 883,-255 889,-249 895,-249"/>
<text xml:space="preserve" text-anchor="middle" x="956" y="-546.55" font-family="Microsoft JhengHei, Noto Sans CJK TC, PingFang TC, sans-serif" font-size="11.00" fill="#1f2937">公主脫離控制</text>
</g>
<g id="clust2" class="cluster">
<title>cluster_01</title>
<path fill="#fafafa" stroke="#cbd5e1" d="M250,-249C250,-249 392,-249 392,-249 398,-249 404,-255 404,-261 404,-261 404,-549 404,-549 404,-555 398,-561 392,-561 392,-561 250,-561 250,-561 244,-561 238,-555 238,-549 238,-549 238,-261 238,-261 238,-255 244,-249 250,-249"/>
<text xml:space="preserve" text-anchor="middle" x="321" y="-546.55" font-family="Microsoft JhengHei, Noto Sans CJK TC, PingFang TC, sans-serif" font-size="11.00" fill="#1f2937">對克洛德的懷疑</text>
</g>
<g id="clust3" class="cluster">
<title>cluster_02</title>
<path fill="#fafafa" stroke="#cbd5e1" d="M424,-486C424,-486 546,-486 546,-486 552,-486 558,-492 558,-498 558,-498 558,-707 558,-707 558,-713 552,-719 546,-719 546,-719 424,-719 424,-719 418,-719 412,-713 412,-707 412,-707 412,-498 412,-498 412,-492 418,-486 424,-486"/>
<text xml:space="preserve" text-anchor="middle" x="485" y="-704.55" font-family="Microsoft JhengHei, Noto Sans CJK TC, PingFang TC, sans-serif" font-size="11.00" fill="#1f2937">接觸人類與彭達拉薩人</text>
</g>
<g id="clust4" class="cluster">
<title>cluster_03</title>
<path fill="#fafafa" stroke="#cbd5e1" d="M578,-486C578,-486 863,-486 863,-486 869,-486 875,-492 875,-498 875,-498 875,-786 875,-786 875,-792 869,-798 863,-798 863,-798 578,-798 578,-798 572,-798 566,-792 566,-786 566,-786 566,-498 566,-498 566,-492 572,-486 578,-486"/>
<text xml:space="preserve" text-anchor="middle" x="720.5" y="-783.55" font-family="Microsoft JhengHei, Noto Sans CJK TC, PingFang TC, sans-serif" font-size="11.00" fill="#1f2937">海底危機與陸地集結</text>
</g>
<g id="clust5" class="cluster">
<title>cluster_04</title>
<path fill="#fafafa" stroke="#cbd5e1" d="M462,-8C462,-8 584,-8 584,-8 590,-8 596,-14 596,-20 596,-20 596,-229 596,-229 596,-235 590,-241 584,-241 584,-241 462,-241 462,-241 456,-241 450,-235 450,-229 450,-229 450,-20 450,-20 450,-14 456,-8 462,-8"/>
<text xml:space="preserve" text-anchor="middle" x="523" y="-226.55" font-family="Microsoft JhengHei, Noto Sans CJK TC, PingFang TC, sans-serif" font-size="11.00" fill="#1f2937">目標與觸發</text>
</g>
<g id="clust6" class="cluster">
<title>cluster_05</title>
<path fill="#fafafa" stroke="#cbd5e1" d="M20,-87C20,-87 218,-87 218,-87 224,-87 230,-93 230,-99 230,-99 230,-312 230,-312 230,-318 224,-324 218,-324 218,-324 20,-324 20,-324 14,-324 8,-318 8,-312 8,-312 8,-99 8,-99 8,-93 14,-87 20,-87"/>
<text xml:space="preserve" text-anchor="middle" x="119" y="-309.55" font-family="Microsoft JhengHei, Noto Sans CJK TC, PingFang TC, sans-serif" font-size="11.00" fill="#1f2937">阿德萊德支線</text>
</g>
<!-- n011 -->
<g id="node1" class="node">
<title>n011</title>
<g id="a_node1"><a xlink:title="認為人魚公主脫離控制">
<polygon fill="#ede9fe" stroke="#7c3aed" stroke-width="1.2" stroke-dasharray="5,2" points="945,-293 891,-293 891,-257 945,-257 945,-293"/>
<text xml:space="preserve" text-anchor="middle" x="918" y="-272.82" font-family="Microsoft JhengHei, Noto Sans CJK TC, PingFang TC, sans-serif" font-size="9.00" fill="#1f2937">脫離控制</text>
</a>
</g>
</g>
<!-- n005 -->
<g id="node30" class="node">
<title>n005</title>
<g id="a_node30"><a xlink:title="康士坦絲的不滿與懷疑達至峰值">
<polygon fill="#ede9fe" stroke="#7c3aed" stroke-width="1.2" stroke-dasharray="5,2" points="512,-210 458,-210 458,-174 512,-174 512,-210"/>
<text xml:space="preserve" text-anchor="middle" x="485" y="-189.82" font-family="Microsoft JhengHei, Noto Sans CJK TC, PingFang TC, sans-serif" font-size="9.00" fill="#1f2937">不滿峰值</text>
</a>
</g>
</g>
<!-- n011&#45;&gt;n005 -->
<g id="edge13" class="edge">
<title>n011&#45;&gt;n005</title>
<path fill="none" stroke="#ea580c" d="M890.5,-271.31C840.74,-266.5 732.46,-256.23 641,-249 614.8,-246.93 546.26,-253.24 523,-241 512.71,-235.58 504.27,-226.03 497.98,-216.86"/>
<polygon fill="#ea580c" stroke="#ea580c" points="500.03,-215.83 494.61,-211.59 496.2,-218.29 500.03,-215.83"/>
</g>
<!-- n012 -->
<g id="node2" class="node">
<title>n012</title>
<g id="a_node2"><a xlink:title="人魚公主違抗命令">
<polygon fill="#dbeafe" stroke="#2563eb" stroke-width="2" points="939,-372 891,-372 891,-336 945,-336 945,-366 939,-372"/>
<polyline fill="none" stroke="#2563eb" stroke-width="2" points="939,-372 939,-366"/>
<polyline fill="none" stroke="#2563eb" stroke-width="2" points="945,-366 939,-366"/>
<text xml:space="preserve" text-anchor="middle" x="918" y="-351.82" font-family="Microsoft JhengHei, Noto Sans CJK TC, PingFang TC, sans-serif" font-size="9.00" fill="#1f2937">違抗</text>
</a>
</g>
</g>
<!-- n012&#45;&gt;n011 -->
<g id="edge15" class="edge">
<title>n012&#45;&gt;n011</title>
<path fill="none" stroke="#1f2937" d="M918,-335.14C918,-325.06 918,-312.3 918,-301.21"/>
<polygon fill="#1f2937" stroke="#1f2937" points="920.28,-301.51 918,-295.01 915.73,-301.51 920.28,-301.51"/>
</g>
<!-- n013 -->
<g id="node3" class="node">
<title>n013</title>
<g id="a_node3"><a xlink:title="人魚公主對長老有所懷疑">
<polygon fill="#ede9fe" stroke="#7c3aed" stroke-width="1.2" stroke-dasharray="5,2" points="945,-451 891,-451 891,-415 945,-415 945,-451"/>
<text xml:space="preserve" text-anchor="middle" x="918" y="-430.82" font-family="Microsoft JhengHei, Noto Sans CJK TC, PingFang TC, sans-serif" font-size="9.00" fill="#1f2937">懷疑長老</text>
</a>
</g>
</g>
<!-- n013&#45;&gt;n012 -->
<g id="edge18" class="edge">
<title>n013&#45;&gt;n012</title>
<path fill="none" stroke="#ea580c" d="M918,-414.53C918,-404.53 918,-391.8 918,-380.69"/>
<polygon fill="#ea580c" stroke="#ea580c" points="920.28,-380.95 918,-374.45 915.73,-380.95 920.28,-380.95"/>
</g>
<!-- n014 -->
<g id="node4" class="node">
<title>n014</title>
<g id="a_node4"><a xlink:title="暗示人魚公主的真相">
<path fill="#ffedd5" stroke="#ea580c" stroke-width="1.2" stroke-dasharray="5,2" d="M933,-530C933,-530 903,-530 903,-530 897,-530 891,-524 891,-518 891,-518 891,-506 891,-506 891,-500 897,-494 903,-494 903,-494 933,-494 933,-494 939,-494 945,-500 945,-506 945,-506 945,-518 945,-518 945,-524 939,-530 933,-530"/>
<text xml:space="preserve" text-anchor="middle" x="918" y="-509.82" font-family="Microsoft JhengHei, Noto Sans CJK TC, PingFang TC, sans-serif" font-size="9.00" fill="#1f2937">暗示真相</text>
</a>
</g>
</g>
<!-- n014&#45;&gt;n013 -->
<g id="edge17" class="edge">
<title>n014&#45;&gt;n013</title>
<path fill="none" stroke="#ea580c" d="M918,-493.53C918,-483.39 918,-470.44 918,-459.21"/>
<polygon fill="#ea580c" stroke="#ea580c" points="920.28,-459.42 918,-452.92 915.73,-459.42 920.28,-459.42"/>
</g>
<!-- n015 -->
<g id="node5" class="node">
<title>n015</title>
<g id="a_node5"><a xlink:title="可伶未有按時報告">
<polygon fill="#dbeafe" stroke="#2563eb" stroke-width="2" points="1015,-372 967,-372 967,-336 1021,-336 1021,-366 1015,-372"/>
<polyline fill="none" stroke="#2563eb" stroke-width="2" points="1015,-372 1015,-366"/>
<polyline fill="none" stroke="#2563eb" stroke-width="2" points="1021,-366 1015,-366"/>
<text xml:space="preserve" text-anchor="middle" x="994" y="-351.82" font-family="Microsoft JhengHei, Noto Sans CJK TC, PingFang TC, sans-serif" font-size="9.00" fill="#1f2937">未報告</text>
</a>
</g>
</g>
<!-- n015&#45;&gt;n011 -->
<g id="edge14" class="edge">
<title>n015&#45;&gt;n011</title>
<path fill="none" stroke="#1f2937" d="M976.37,-335.14C965.75,-324.37 952.1,-310.55 940.68,-298.98"/>
<polygon fill="#1f2937" stroke="#1f2937" points="942.52,-297.6 936.33,-294.57 939.28,-300.8 942.52,-297.6"/>
</g>
<!-- n016 -->
<g id="node6" class="node">
<title>n016</title>
<g id="a_node6"><a xlink:title="烏蘇拉截下報告">
<path fill="#ffedd5" stroke="#ea580c" stroke-width="2" d="M1009,-451C1009,-451 979,-451 979,-451 973,-451 967,-445 967,-439 967,-439 967,-427 967,-427 967,-421 973,-415 979,-415 979,-415 1009,-415 1009,-415 1015,-415 1021,-421 1021,-427 1021,-427 1021,-439 1021,-439 1021,-445 1015,-451 1009,-451"/>
<text xml:space="preserve" text-anchor="middle" x="994" y="-430.82" font-family="Microsoft JhengHei, Noto Sans CJK TC, PingFang TC, sans-serif" font-size="9.00" fill="#1f2937">截報告</text>
</a>
</g>
</g>
<!-- n016&#45;&gt;n015 -->
<g id="edge16" class="edge">
<title>n016&#45;&gt;n015</title>
<path fill="none" stroke="#ea580c" d="M994,-414.14C994,-404.23 994,-391.72 994,-380.77"/>
<polygon fill="#ea580c" stroke="#ea580c" points="996.28,-380.78 994,-374.28 991.73,-380.78 996.28,-380.78"/>
</g>
<!-- n031 -->
<g id="node7" class="node">
<title>n031</title>
<g id="a_node7"><a xlink:title="對克洛德懷疑加劇，想收回控制權">
<polygon fill="#ede9fe" stroke="#7c3aed" stroke-width="1.2" stroke-dasharray="5,2" points="305.7,-293 246.3,-293 246.3,-257 305.7,-257 305.7,-293"/>
<text xml:space="preserve" text-anchor="middle" x="276" y="-272.82" font-family="Microsoft JhengHei, Noto Sans CJK TC, PingFang TC, sans-serif" font-size="9.00" fill="#1f2937">懷疑克洛德</text>
</a>
</g>
</g>
<!-- n031&#45;&gt;n005 -->
<g id="edge12" class="edge">
<title>n031&#45;&gt;n005</title>
<path fill="none" stroke="#ea580c" d="M302.87,-256.44C307.49,-253.77 312.31,-251.18 317,-249 361.33,-228.42 415.39,-211.8 450,-202.17"/>
<polygon fill="#ea580c" stroke="#ea580c" points="450.38,-204.42 456.05,-200.5 449.18,-200.03 450.38,-204.42"/>
</g>
<!-- n032 -->
<g id="node8" class="node">
<title>n032</title>
<g id="a_node8"><a xlink:title="懷疑與海都事件有關">
<polygon fill="#ede9fe" stroke="#7c3aed" stroke-width="1.2" stroke-dasharray="5,2" points="389,-372 335,-372 335,-336 389,-336 389,-372"/>
<text xml:space="preserve" text-anchor="middle" x="362" y="-351.82" font-family="Microsoft JhengHei, Noto Sans CJK TC, PingFang TC, sans-serif" font-size="9.00" fill="#1f2937">疑海都</text>
</a>
</g>
</g>
<!-- n032&#45;&gt;n031 -->
<g id="edge25" class="edge">
<title>n032&#45;&gt;n031</title>
<path fill="none" stroke="#1f2937" stroke-dasharray="5,2" d="M334.43,-337.04C328.45,-333.09 322.32,-328.65 317,-324 308.71,-316.76 300.62,-307.81 293.84,-299.62"/>
<polygon fill="#1f2937" stroke="#1f2937" points="295.74,-298.34 289.89,-294.71 292.2,-301.2 295.74,-298.34"/>
</g>
<!-- n035 -->
<g id="node11" class="node">
<title>n035</title>
<g id="a_node11"><a xlink:title="沙羅找到並解封埃爾確">
<polygon fill="#f1f5f9" stroke="#64748b" stroke-width="1.2" stroke-dasharray="5,2" points="395.91,-267.54 395.91,-282.46 376.05,-293 347.95,-293 328.09,-282.46 328.09,-267.54 347.95,-257 376.05,-257 395.91,-267.54"/>
<text xml:space="preserve" text-anchor="middle" x="362" y="-272.82" font-family="Microsoft JhengHei, Noto Sans CJK TC, PingFang TC, sans-serif" font-size="9.00" fill="#1f2937">沙羅解封</text>
</a>
</g>
</g>
<!-- n032&#45;&gt;n035 -->
<g id="edge26" class="edge">
<title>n032&#45;&gt;n035</title>
<path fill="none" stroke="#94a3b8" stroke-dasharray="5,2" d="M362,-335.53C362,-325.39 362,-312.44 362,-301.21"/>
<polygon fill="#94a3b8" stroke="#94a3b8" points="364.28,-301.42 362,-294.92 359.73,-301.42 364.28,-301.42"/>
</g>
<!-- n033 -->
<g id="node9" class="node">
<title>n033</title>
<g id="a_node9"><a xlink:title="水妖掌握人魚公主行蹤">
<polygon fill="#ede9fe" stroke="#7c3aed" stroke-width="1.2" stroke-dasharray="5,2" points="393.7,-451 334.3,-451 334.3,-415 393.7,-415 393.7,-451"/>
<text xml:space="preserve" text-anchor="middle" x="364" y="-430.82" font-family="Microsoft JhengHei, Noto Sans CJK TC, PingFang TC, sans-serif" font-size="9.00" fill="#1f2937">水妖知行蹤</text>
</a>
</g>
</g>
<!-- n033&#45;&gt;n032 -->
<g id="edge24" class="edge">
<title>n033&#45;&gt;n032</title>
<path fill="none" stroke="#1f2937" stroke-dasharray="5,2" d="M363.55,-414.53C363.28,-404.39 362.95,-391.44 362.65,-380.21"/>
<polygon fill="#1f2937" stroke="#1f2937" points="364.93,-380.36 362.49,-373.92 360.39,-380.47 364.93,-380.36"/>
</g>
<!-- n034 -->
<g id="node10" class="node">
<title>n034</title>
<g id="a_node10"><a xlink:title="星羅誕生時水妖與彭達拉薩人出現">
<path fill="#ffedd5" stroke="#ea580c" stroke-width="2" d="M381,-530C381,-530 351,-530 351,-530 345,-530 339,-524 339,-518 339,-518 339,-506 339,-506 339,-500 345,-494 351,-494 351,-494 381,-494 381,-494 387,-494 393,-500 393,-506 393,-506 393,-518 393,-518 393,-524 387,-530 381,-530"/>
<text xml:space="preserve" text-anchor="middle" x="366" y="-509.82" font-family="Microsoft JhengHei, Noto Sans CJK TC, PingFang TC, sans-serif" font-size="9.00" fill="#1f2937">星羅誕生</text>
</a>
</g>
</g>
<!-- n034&#45;&gt;n033 -->
<g id="edge23" class="edge">
<title>n034&#45;&gt;n033</title>
<path fill="none" stroke="#1f2937" d="M365.54,-493.14C365.27,-483.06 364.94,-470.3 364.65,-459.21"/>
<polygon fill="#1f2937" stroke="#1f2937" points="366.94,-459.45 364.49,-453.01 362.39,-459.57 366.94,-459.45"/>
</g>
<!-- n017 -->
<g id="node12" class="node">
<title>n017</title>
<g id="a_node12"><a xlink:title="人魚公主與人類、彭達拉薩人過於親近">
<polygon fill="#dbeafe" stroke="#2563eb" stroke-width="2" points="506,-530 458,-530 458,-494 512,-494 512,-524 506,-530"/>
<polyline fill="none" stroke="#2563eb" stroke-width="2" points="506,-530 506,-524"/>
<polyline fill="none" stroke="#2563eb" stroke-width="2" points="512,-524 506,-524"/>
<text xml:space="preserve" text-anchor="middle" x="485" y="-509.82" font-family="Microsoft JhengHei, Noto Sans CJK TC, PingFang TC, sans-serif" font-size="9.00" fill="#1f2937">過於親近</text>
</a>
</g>
</g>
<!-- n017&#45;&gt;n005 -->
<g id="edge10" class="edge">
<title>n017&#45;&gt;n005</title>
<path fill="none" stroke="#1f2937" d="M485,-493.45C485,-440.24 485,-280.57 485,-218.28"/>
<polygon fill="#1f2937" stroke="#1f2937" points="487.28,-218.51 485,-212.01 482.73,-218.51 487.28,-218.51"/>
</g>
<!-- n018 -->
<g id="node13" class="node">
<title>n018</title>
<g id="a_node13"><a xlink:title="達姬放任人魚公主與他們接觸">
<polygon fill="#ede9fe" stroke="#7c3aed" stroke-width="1.2" stroke-dasharray="5,2" points="474,-609 420,-609 420,-573 474,-573 474,-609"/>
<text xml:space="preserve" text-anchor="middle" x="447" y="-588.83" font-family="Microsoft JhengHei, Noto Sans CJK TC, PingFang TC, sans-serif" font-size="9.00" fill="#1f2937">達姬放任</text>
</a>
</g>
</g>
<!-- n018&#45;&gt;n017 -->
<g id="edge20" class="edge">
<title>n018&#45;&gt;n017</title>
<path fill="none" stroke="#ea580c" d="M455.62,-572.53C460.65,-562.34 467.08,-549.31 472.64,-538.04"/>
<polygon fill="#ea580c" stroke="#ea580c" points="474.64,-539.13 475.48,-532.29 470.56,-537.12 474.64,-539.13"/>
</g>
<!-- n019 -->
<g id="node14" class="node">
<title>n019</title>
<g id="a_node14"><a xlink:title="與諾愛爾、可伶一同行動">
<path fill="#ffedd5" stroke="#ea580c" stroke-width="2" d="M462,-688C462,-688 432,-688 432,-688 426,-688 420,-682 420,-676 420,-676 420,-664 420,-664 420,-658 426,-652 432,-652 432,-652 462,-652 462,-652 468,-652 474,-658 474,-664 474,-664 474,-676 474,-676 474,-682 468,-688 462,-688"/>
<text xml:space="preserve" text-anchor="middle" x="447" y="-667.83" font-family="Microsoft JhengHei, Noto Sans CJK TC, PingFang TC, sans-serif" font-size="9.00" fill="#1f2937">一同行動</text>
</a>
</g>
</g>
<!-- n019&#45;&gt;n018 -->
<g id="edge19" class="edge">
<title>n019&#45;&gt;n018</title>
<path fill="none" stroke="#1f2937" d="M447,-651.14C447,-641.06 447,-628.3 447,-617.21"/>
<polygon fill="#1f2937" stroke="#1f2937" points="449.28,-617.51 447,-611.01 444.73,-617.51 449.28,-617.51"/>
</g>
<!-- n020 -->
<g id="node15" class="node">
<title>n020</title>
<g id="a_node15"><a xlink:title="彭達拉薩族介入者">
<ellipse fill="#dcfce7" stroke="#16a34a" stroke-width="2" cx="523" cy="-591" rx="27" ry="18"/>
<text xml:space="preserve" text-anchor="middle" x="523" y="-588.83" font-family="Microsoft JhengHei, Noto Sans CJK TC, PingFang TC, sans-serif" font-size="9.00" fill="#1f2937">介入者</text>
</a>
</g>
</g>
<!-- n020&#45;&gt;n034 -->
<g id="edge22" class="edge">
<title>n020&#45;&gt;n034</title>
<path fill="none" stroke="#94a3b8" stroke-dasharray="1,5" d="M501.28,-579.08C496.05,-576.79 490.41,-574.59 485,-573 451.36,-563.08 437.64,-578.07 407,-561 394.36,-553.96 383.86,-541.42 376.64,-530.92"/>
</g>
<!-- n020&#45;&gt;n017 -->
<g id="edge21" class="edge">
<title>n020&#45;&gt;n017</title>
<path fill="none" stroke="#94a3b8" stroke-dasharray="1,5" d="M514.57,-572.91C508.4,-560.42 500.06,-543.51 493.81,-530.84"/>
</g>
<!-- n021 -->
<g id="node16" class="node">
<title>n021</title>
<g id="a_node16"><a xlink:title="長時間留在陸地">
<polygon fill="#dbeafe" stroke="#2563eb" stroke-width="2" points="718,-530 670,-530 670,-494 724,-494 724,-524 718,-530"/>
<polyline fill="none" stroke="#2563eb" stroke-width="2" points="718,-530 718,-524"/>
<polyline fill="none" stroke="#2563eb" stroke-width="2" points="724,-524 718,-524"/>
<text xml:space="preserve" text-anchor="middle" x="697" y="-509.82" font-family="Microsoft JhengHei, Noto Sans CJK TC, PingFang TC, sans-serif" font-size="9.00" fill="#1f2937">留陸地</text>
</a>
</g>
</g>
<!-- n021&#45;&gt;n005 -->
<g id="edge11" class="edge">
<title>n021&#45;&gt;n005</title>
<path fill="none" stroke="#1f2937" d="M685.3,-493.45C649.61,-439.92 542.07,-278.61 501.1,-217.15"/>
<polygon fill="#1f2937" stroke="#1f2937" points="503,-215.9 497.5,-211.76 499.22,-218.43 503,-215.9"/>
</g>
<!-- n022 -->
<g id="node17" class="node">
<title>n022</title>
<g id="a_node17"><a xlink:title="海底不安全，需要留在陸地">
<polygon fill="#ede9fe" stroke="#7c3aed" stroke-width="1.2" stroke-dasharray="5,2" points="726.7,-609 667.3,-609 667.3,-573 726.7,-573 726.7,-609"/>
<text xml:space="preserve" text-anchor="middle" x="697" y="-588.83" font-family="Microsoft JhengHei, Noto Sans CJK TC, PingFang TC, sans-serif" font-size="9.00" fill="#1f2937">海底不安全</text>
</a>
</g>
</g>
<!-- n022&#45;&gt;n021 -->
<g id="edge30" class="edge">
<title>n022&#45;&gt;n021</title>
<path fill="none" stroke="#ea580c" d="M697,-572.53C697,-562.53 697,-549.8 697,-538.69"/>
<polygon fill="#ea580c" stroke="#ea580c" points="699.28,-538.95 697,-532.45 694.73,-538.95 699.28,-538.95"/>
</g>
<!-- n023 -->
<g id="node18" class="node">
<title>n023</title>
<g id="a_node18"><a xlink:title="只有埃爾確有能力與動機製造這樣的危機">
<polygon fill="#fee2e2" stroke="#dc2626" stroke-width="2.6" points="709.7,-688 650.3,-688 650.3,-652 709.7,-652 709.7,-688"/>
<text xml:space="preserve" text-anchor="middle" x="680" y="-667.83" font-family="Microsoft JhengHei, Noto Sans CJK TC, PingFang TC, sans-serif" font-size="9.00" fill="#1f2937">只有埃爾確</text>
</a>
</g>
</g>
<!-- n023&#45;&gt;n022 -->
<g id="edge28" class="edge">
<title>n023&#45;&gt;n022</title>
<path fill="none" stroke="#1f2937" stroke-dasharray="5,2" d="M684.03,-650.75C686.24,-640.73 689.02,-628.15 691.43,-617.21"/>
<polygon fill="#1f2937" stroke="#1f2937" points="693.61,-617.9 692.79,-611.06 689.17,-616.92 693.61,-617.9"/>
</g>
<!-- n024 -->
<g id="node19" class="node">
<title>n024</title>
<g id="a_node19"><a xlink:title="埃爾確解封，海都襲擊人魚王國">
<path fill="#ffedd5" stroke="#ea580c" stroke-width="2" d="M695,-767C695,-767 665,-767 665,-767 659,-767 653,-761 653,-755 653,-755 653,-743 653,-743 653,-737 659,-731 665,-731 665,-731 695,-731 695,-731 701,-731 707,-737 707,-743 707,-743 707,-755 707,-755 707,-761 701,-767 695,-767"/>
<text xml:space="preserve" text-anchor="middle" x="680" y="-746.83" font-family="Microsoft JhengHei, Noto Sans CJK TC, PingFang TC, sans-serif" font-size="9.00" fill="#1f2937">海都襲擊</text>
</a>
</g>
</g>
<!-- n024&#45;&gt;n023 -->
<g id="edge27" class="edge">
<title>n024&#45;&gt;n023</title>
<path fill="none" stroke="#1f2937" d="M680,-730.14C680,-720.37 680,-708.08 680,-697.24"/>
<polygon fill="#1f2937" stroke="#1f2937" points="682.28,-697.31 680,-690.81 677.73,-697.31 682.28,-697.31"/>
</g>
<!-- n025 -->
<g id="node20" class="node">
<title>n025</title>
<g id="a_node20"><a xlink:title="米迦勒襲擊人魚公主">
<path fill="#ffedd5" stroke="#ea580c" stroke-width="2" d="M778.7,-688C778.7,-688 743.3,-688 743.3,-688 737.3,-688 731.3,-682 731.3,-676 731.3,-676 731.3,-664 731.3,-664 731.3,-658 737.3,-652 743.3,-652 743.3,-652 778.7,-652 778.7,-652 784.7,-652 790.7,-658 790.7,-664 790.7,-664 790.7,-676 790.7,-676 790.7,-682 784.7,-688 778.7,-688"/>
<text xml:space="preserve" text-anchor="middle" x="761" y="-667.83" font-family="Microsoft JhengHei, Noto Sans CJK TC, PingFang TC, sans-serif" font-size="9.00" fill="#1f2937">米迦勒襲擊</text>
</a>
</g>
</g>
<!-- n025&#45;&gt;n022 -->
<g id="edge29" class="edge">
<title>n025&#45;&gt;n022</title>
<path fill="none" stroke="#ea580c" d="M746.16,-651.14C737.37,-640.57 726.13,-627.05 716.62,-615.61"/>
<polygon fill="#ea580c" stroke="#ea580c" points="718.41,-614.21 712.51,-610.66 714.92,-617.11 718.41,-614.21"/>
</g>
<!-- n026 -->
<g id="node21" class="node">
<title>n026</title>
<g id="a_node21"><a xlink:title="營造必須仰賴北太平洋王國的局面">
<polygon fill="#ede9fe" stroke="#7c3aed" stroke-width="1.2" stroke-dasharray="5,2" points="850.2,-609 781.8,-609 781.8,-573 850.2,-573 850.2,-609"/>
<text xml:space="preserve" text-anchor="middle" x="816" y="-588.83" font-family="Microsoft JhengHei, Noto Sans CJK TC, PingFang TC, sans-serif" font-size="9.00" fill="#1f2937">仰賴北太平洋</text>
</a>
</g>
</g>
<!-- n026&#45;&gt;n021 -->
<g id="edge31" class="edge">
<title>n026&#45;&gt;n021</title>
<path fill="none" stroke="#ea580c" d="M789,-572.53C771.9,-561.46 749.63,-547.05 731.29,-535.18"/>
<polygon fill="#ea580c" stroke="#ea580c" points="732.69,-533.38 725.99,-531.76 730.21,-537.2 732.69,-533.38"/>
</g>
<!-- n027 -->
<g id="node22" class="node">
<title>n027</title>
<g id="a_node22"><a xlink:title="迫使人魚公主在陸地集結，貿然分開回到王國反而危險">
<polygon fill="#ede9fe" stroke="#7c3aed" stroke-width="1.2" stroke-dasharray="5,2" points="867,-688 813,-688 813,-652 867,-652 867,-688"/>
<text xml:space="preserve" text-anchor="middle" x="840" y="-667.83" font-family="Microsoft JhengHei, Noto Sans CJK TC, PingFang TC, sans-serif" font-size="9.00" fill="#1f2937">陸地集結</text>
</a>
</g>
</g>
<!-- n027&#45;&gt;n026 -->
<g id="edge34" class="edge">
<title>n027&#45;&gt;n026</title>
<path fill="none" stroke="#ea580c" d="M834.55,-651.53C831.36,-641.29 827.28,-628.19 823.76,-616.88"/>
<polygon fill="#ea580c" stroke="#ea580c" points="825.98,-616.38 821.87,-610.85 821.64,-617.73 825.98,-616.38"/>
</g>
<!-- n028 -->
<g id="node23" class="node">
<title>n028</title>
<g id="a_node23"><a xlink:title="VPTS企圖綁架">
<path fill="#ffedd5" stroke="#ea580c" stroke-width="2" d="M617.08,-767C617.08,-767 586.92,-767 586.92,-767 580.92,-767 574.92,-761 574.92,-755 574.92,-755 574.92,-743 574.92,-743 574.92,-737 580.92,-731 586.92,-731 586.92,-731 617.08,-731 617.08,-731 623.08,-731 629.08,-737 629.08,-743 629.08,-743 629.08,-755 629.08,-755 629.08,-761 623.08,-767 617.08,-767"/>
<text xml:space="preserve" text-anchor="middle" x="602" y="-746.83" font-family="Microsoft JhengHei, Noto Sans CJK TC, PingFang TC, sans-serif" font-size="9.00" fill="#1f2937">VPTS綁架</text>
</a>
</g>
</g>
<!-- n028&#45;&gt;n027 -->
<g id="edge32" class="edge">
<title>n028&#45;&gt;n027</title>
<path fill="none" stroke="#ea580c" d="M630.02,-734.75C633.97,-733.27 638.04,-731.96 642,-731 676.65,-722.58 770.51,-735.72 802,-719 812.27,-713.55 820.71,-703.98 827,-694.82"/>
<polygon fill="#ea580c" stroke="#ea580c" points="828.78,-696.26 830.38,-689.56 824.95,-693.8 828.78,-696.26"/>
</g>
<!-- n029 -->
<g id="node24" class="node">
<title>n029</title>
<g id="a_node24"><a xlink:title="需要有人阻止VPTS成功">
<polygon fill="#ede9fe" stroke="#7c3aed" stroke-width="1.2" stroke-dasharray="5,2" points="628.08,-688 573.92,-688 573.92,-652 628.08,-652 628.08,-688"/>
<text xml:space="preserve" text-anchor="middle" x="601" y="-667.83" font-family="Microsoft JhengHei, Noto Sans CJK TC, PingFang TC, sans-serif" font-size="9.00" fill="#1f2937">阻止VPTS</text>
</a>
</g>
</g>
<!-- n028&#45;&gt;n029 -->
<g id="edge35" class="edge">
<title>n028&#45;&gt;n029</title>
<path fill="none" stroke="#ea580c" d="M601.77,-730.14C601.64,-720.06 601.47,-707.3 601.33,-696.21"/>
<polygon fill="#ea580c" stroke="#ea580c" points="603.61,-696.48 601.25,-690.01 599.06,-696.54 603.61,-696.48"/>
</g>
<!-- n029&#45;&gt;n020 -->
<g id="edge36" class="edge">
<title>n029&#45;&gt;n020</title>
<path fill="none" stroke="#ea580c" d="M583.3,-651.53C571.45,-639.83 555.82,-624.4 543.44,-612.18"/>
<polygon fill="#ea580c" stroke="#ea580c" points="545.31,-610.82 539.08,-607.88 542.11,-614.06 545.31,-610.82"/>
</g>
<!-- n030 -->
<g id="node25" class="node">
<title>n030</title>
<g id="a_node25"><a xlink:title="魅影小隊將逃亡的人魚公主帶到陸地">
<polygon fill="#f1f5f9" stroke="#64748b" stroke-width="1.2" stroke-dasharray="5,2" points="867.02,-741.54 867.02,-756.46 840.06,-767 801.94,-767 774.98,-756.46 774.98,-741.54 801.94,-731 840.06,-731 867.02,-741.54"/>
<text xml:space="preserve" text-anchor="middle" x="821" y="-746.83" font-family="Microsoft JhengHei, Noto Sans CJK TC, PingFang TC, sans-serif" font-size="9.00" fill="#1f2937">魅影帶到陸地</text>
</a>
</g>
</g>
<!-- n030&#45;&gt;n027 -->
<g id="edge33" class="edge">
<title>n030&#45;&gt;n027</title>
<path fill="none" stroke="#ea580c" d="M825.31,-730.53C827.84,-720.29 831.07,-707.19 833.86,-695.88"/>
<polygon fill="#ea580c" stroke="#ea580c" points="835.99,-696.73 835.34,-689.87 831.58,-695.64 835.99,-696.73"/>
</g>
<!-- n001 -->
<g id="node26" class="node">
<title>n001</title>
<g id="a_node26"><a xlink:title="星降神臨崩壞">
<polygon fill="#ede9fe" stroke="#7c3aed" stroke-width="1.2" stroke-dasharray="5,2" points="550,-52 496,-52 496,-16 550,-16 550,-52"/>
<text xml:space="preserve" text-anchor="middle" x="523" y="-31.82" font-family="Microsoft JhengHei, Noto Sans CJK TC, PingFang TC, sans-serif" font-size="9.00" fill="#1f2937">崩壞</text>
</a>
</g>
</g>
<!-- n002 -->
<g id="node27" class="node">
<title>n002</title>
<g id="a_node27"><a xlink:title="諾愛爾、可伶被處以星盡">
<path fill="#ffedd5" stroke="#ea580c" stroke-width="1.2" stroke-dasharray="5,2" d="M500,-131C500,-131 470,-131 470,-131 464,-131 458,-125 458,-119 458,-119 458,-107 458,-107 458,-101 464,-95 470,-95 470,-95 500,-95 500,-95 506,-95 512,-101 512,-107 512,-107 512,-119 512,-119 512,-125 506,-131 500,-131"/>
<text xml:space="preserve" text-anchor="middle" x="485" y="-110.83" font-family="Microsoft JhengHei, Noto Sans CJK TC, PingFang TC, sans-serif" font-size="9.00" fill="#1f2937">星盡</text>
</a>
</g>
</g>
<!-- n002&#45;&gt;n001 -->
<g id="edge2" class="edge">
<title>n002&#45;&gt;n001</title>
<path fill="none" stroke="#ea580c" d="M493.62,-94.53C498.72,-84.19 505.27,-70.94 510.88,-59.56"/>
<polygon fill="#ea580c" stroke="#ea580c" points="512.9,-60.6 513.74,-53.76 508.82,-58.58 512.9,-60.6"/>
</g>
<!-- n003 -->
<g id="node28" class="node">
<title>n003</title>
<g id="a_node28"><a xlink:title="削弱星降神臨力量">
<polygon fill="#ede9fe" stroke="#7c3aed" stroke-width="1.2" stroke-dasharray="5,2" points="588,-131 534,-131 534,-95 588,-95 588,-131"/>
<text xml:space="preserve" text-anchor="middle" x="561" y="-110.83" font-family="Microsoft JhengHei, Noto Sans CJK TC, PingFang TC, sans-serif" font-size="9.00" fill="#1f2937">削弱</text>
</a>
</g>
</g>
<!-- n003&#45;&gt;n001 -->
<g id="edge4" class="edge">
<title>n003&#45;&gt;n001</title>
<path fill="none" stroke="#ea580c" d="M552.38,-94.53C547.28,-84.19 540.73,-70.94 535.12,-59.56"/>
<polygon fill="#ea580c" stroke="#ea580c" points="537.18,-58.58 532.26,-53.76 533.1,-60.6 537.18,-58.58"/>
</g>
<!-- n004 -->
<g id="node29" class="node">
<title>n004</title>
<g id="a_node29"><a xlink:title="水妖不斷襲擊人魚公主，使干擾反覆解除">
<path fill="#ffedd5" stroke="#ea580c" stroke-width="1.2" stroke-dasharray="5,2" d="M576,-210C576,-210 546,-210 546,-210 540,-210 534,-204 534,-198 534,-198 534,-186 534,-186 534,-180 540,-174 546,-174 546,-174 576,-174 576,-174 582,-174 588,-180 588,-186 588,-186 588,-198 588,-198 588,-204 582,-210 576,-210"/>
<text xml:space="preserve" text-anchor="middle" x="561" y="-189.82" font-family="Microsoft JhengHei, Noto Sans CJK TC, PingFang TC, sans-serif" font-size="9.00" fill="#1f2937">水妖襲擊</text>
</a>
</g>
</g>
<!-- n004&#45;&gt;n003 -->
<g id="edge3" class="edge">
<title>n004&#45;&gt;n003</title>
<path fill="none" stroke="#ea580c" d="M561,-173.53C561,-163.39 561,-150.44 561,-139.21"/>
<polygon fill="#ea580c" stroke="#ea580c" points="563.28,-139.42 561,-132.92 558.73,-139.42 563.28,-139.42"/>
</g>
<!-- n005&#45;&gt;n002 -->
<g id="edge1" class="edge">
<title>n005&#45;&gt;n002</title>
<path fill="none" stroke="#ea580c" d="M485,-173.53C485,-163.39 485,-150.44 485,-139.21"/>
<polygon fill="#ea580c" stroke="#ea580c" points="487.28,-139.42 485,-132.92 482.73,-139.42 487.28,-139.42"/>
</g>
<!-- n006 -->
<g id="node31" class="node">
<title>n006</title>
<g id="a_node31"><a xlink:title="星盡需要五位大長老">
<polygon fill="#dbeafe" stroke="#2563eb" stroke-width="2" points="216,-210 168,-210 168,-174 222,-174 222,-204 216,-210"/>
<polyline fill="none" stroke="#2563eb" stroke-width="2" points="216,-210 216,-204"/>
<polyline fill="none" stroke="#2563eb" stroke-width="2" points="222,-204 216,-204"/>
<text xml:space="preserve" text-anchor="middle" x="195" y="-189.82" font-family="Microsoft JhengHei, Noto Sans CJK TC, PingFang TC, sans-serif" font-size="9.00" fill="#1f2937">五長老</text>
</a>
</g>
</g>
<!-- n006&#45;&gt;n002 -->
<g id="edge5" class="edge">
<title>n006&#45;&gt;n002</title>
<path fill="none" stroke="#94a3b8" stroke-dasharray="1,5" d="M222.81,-183.62C278.38,-168.86 402.55,-135.89 457.7,-121.25"/>
</g>
<!-- n007 -->
<g id="node32" class="node">
<title>n007</title>
<g id="a_node32"><a xlink:title="迫阿德萊德下台">
<polygon fill="#ede9fe" stroke="#7c3aed" stroke-width="1.2" stroke-dasharray="5,2" points="146,-131 92,-131 92,-95 146,-95 146,-131"/>
<text xml:space="preserve" text-anchor="middle" x="119" y="-110.83" font-family="Microsoft JhengHei, Noto Sans CJK TC, PingFang TC, sans-serif" font-size="9.00" fill="#1f2937">迫下台</text>
</a>
</g>
</g>
<!-- n006&#45;&gt;n007 -->
<g id="edge6" class="edge">
<title>n006&#45;&gt;n007</title>
<path fill="none" stroke="#1f2937" d="M177.37,-173.14C166.75,-162.37 153.1,-148.55 141.68,-136.98"/>
<polygon fill="#1f2937" stroke="#1f2937" points="143.52,-135.6 137.33,-132.57 140.28,-138.8 143.52,-135.6"/>
</g>
<!-- n008 -->
<g id="node33" class="node">
<title>n008</title>
<g id="a_node33"><a xlink:title="康士坦絲對阿德萊德產生不滿">
<polygon fill="#ede9fe" stroke="#7c3aed" stroke-width="1.2" stroke-dasharray="5,2" points="70,-210 16,-210 16,-174 70,-174 70,-210"/>
<text xml:space="preserve" text-anchor="middle" x="43" y="-189.82" font-family="Microsoft JhengHei, Noto Sans CJK TC, PingFang TC, sans-serif" font-size="9.00" fill="#1f2937">對阿不滿</text>
</a>
</g>
</g>
<!-- n008&#45;&gt;n007 -->
<g id="edge9" class="edge">
<title>n008&#45;&gt;n007</title>
<path fill="none" stroke="#ea580c" d="M60.25,-173.53C70.93,-162.7 84.78,-148.67 96.35,-136.95"/>
<polygon fill="#ea580c" stroke="#ea580c" points="97.81,-138.7 100.76,-132.48 94.57,-135.51 97.81,-138.7"/>
</g>
<!-- n009 -->
<g id="node34" class="node">
<title>n009</title>
<g id="a_node34"><a xlink:title="塞雷亞策劃送兩人到陸地，阿德萊德以管不住諾愛爾解釋">
<path fill="#ffedd5" stroke="#ea580c" stroke-width="2" d="M58,-293C58,-293 28,-293 28,-293 22,-293 16,-287 16,-281 16,-281 16,-269 16,-269 16,-263 22,-257 28,-257 28,-257 58,-257 58,-257 64,-257 70,-263 70,-269 70,-269 70,-281 70,-281 70,-287 64,-293 58,-293"/>
<text xml:space="preserve" text-anchor="middle" x="43" y="-272.82" font-family="Microsoft JhengHei, Noto Sans CJK TC, PingFang TC, sans-serif" font-size="9.00" fill="#1f2937">送陸地</text>
</a>
</g>
</g>
<!-- n009&#45;&gt;n008 -->
<g id="edge8" class="edge">
<title>n009&#45;&gt;n008</title>
<path fill="none" stroke="#ea580c" d="M43,-256.02C43,-244.86 43,-230.35 43,-218.06"/>
<polygon fill="#ea580c" stroke="#ea580c" points="45.28,-218.38 43,-211.88 40.73,-218.38 45.28,-218.38"/>
</g>
<!-- n010 -->
<g id="node35" class="node">
<title>n010</title>
<g id="a_node35"><a xlink:title="阿德萊德叛變證據">
<polygon fill="#dbeafe" stroke="#2563eb" stroke-width="2" points="140,-210 92,-210 92,-174 146,-174 146,-204 140,-210"/>
<polyline fill="none" stroke="#2563eb" stroke-width="2" points="140,-210 140,-204"/>
<polyline fill="none" stroke="#2563eb" stroke-width="2" points="146,-204 140,-204"/>
<text xml:space="preserve" text-anchor="middle" x="119" y="-189.82" font-family="Microsoft JhengHei, Noto Sans CJK TC, PingFang TC, sans-serif" font-size="9.00" fill="#1f2937">叛變證據</text>
</a>
</g>
</g>
<!-- n010&#45;&gt;n007 -->
<g id="edge7" class="edge">
<title>n010&#45;&gt;n007</title>
<path fill="none" stroke="#1f2937" d="M119,-173.14C119,-163.06 119,-150.3 119,-139.21"/>
<polygon fill="#1f2937" stroke="#1f2937" points="121.28,-139.51 119,-133.01 116.73,-139.51 121.28,-139.51"/>
</g>
</g>
</svg>
